<?xml version="1.0" encoding="UTF-8" standalone="no"?>
<svg
   xmlns:dc="http://purl.org/dc/elements/1.1/"
   xmlns:cc="http://creativecommons.org/ns#"
   xmlns:rdf="http://www.w3.org/1999/02/22-rdf-syntax-ns#"
   xmlns:svg="http://www.w3.org/2000/svg"
   xmlns="http://www.w3.org/2000/svg"
   xmlns:sodipodi="http://sodipodi.sourceforge.net/DTD/sodipodi-0.dtd"
   xmlns:inkscape="http://www.inkscape.org/namespaces/inkscape"
   version="1.0"
   width="1280.000000pt"
   height="950.000000pt"
   viewBox="0 0 1280.000000 950.000000"
   preserveAspectRatio="xMidYMid meet"
   id="svg120"
   sodipodi:docname="sonstiges.svg"
   inkscape:version="1.0.1 (c497b03c, 2020-09-10)">
  <metadata
     id="metadata126">
    <rdf:RDF>
      <cc:Work
         rdf:about="">
        <dc:format>image/svg+xml</dc:format>
        <dc:type
           rdf:resource="http://purl.org/dc/dcmitype/StillImage" />
        <dc:title></dc:title>
      </cc:Work>
    </rdf:RDF>
  </metadata>
  <defs
     id="defs124">
    <rect
       x="315.58622"
       y="260.4138"
       width="865.10348"
       height="240.55173"
       id="rect144" />
    <rect
       x="222.89656"
       y="262.6207"
       width="803.31037"
       height="304.55173"
       id="rect130" />
  </defs>
  <sodipodi:namedview
     pagecolor="#ffffff"
     bordercolor="#666666"
     borderopacity="1"
     objecttolerance="10"
     gridtolerance="10"
     guidetolerance="10"
     inkscape:pageopacity="0"
     inkscape:pageshadow="2"
     inkscape:window-width="1440"
     inkscape:window-height="900"
     id="namedview122"
     showgrid="false"
     inkscape:zoom="0.75292969"
     inkscape:cx="853.33333"
     inkscape:cy="633.33333"
     inkscape:window-x="131"
     inkscape:window-y="1050"
     inkscape:window-maximized="0"
     inkscape:current-layer="svg120" />
  <g
     transform="translate(0.000000,950.000000) scale(0.100000,-0.100000)"
     fill="#000000"
     stroke="none"
     id="g118">
    <path
       d="M1345 8706 c-111 -35 -209 -123 -242 -218 -17 -51 -18 -171 -18 -3103 l0 -3050 22 -48 c48 -104 120 -168 234 -209 l64 -23 2175 -5 2175 -5 73 -22 c40 -11 76 -24 80 -28 7 -7 20 -870 13 -893 -4 -15 -17 -18 -171 -32 -284 -26 -517 -75 -629 -132 -92 -47 -95 -57 -41 -114 88 -91 251 -144 565 -184 428 -54 948 -54 1361 0 331 43 467 102 481 208 5 36 2 45 -24 71 -52 52 -245 100 -560 140 -84 11 -160 24 -170 30 -17 9 -18 32 -15 368 4 363 14 477 47 528 8 13 38 27 86 40 72 20 124 20 2294 25 2027 5 2224 6 2267 22 114 39 190 107 230 207 l23 56 0 3040 c0 2863 -1 3043 -17 3096 -35 113 -121 204 -220 234 -46 13 -597 15 -5047 14 -4006 0 -5004 -3 -5036 -13z m9880 -379 c33 -10 66 -25 72 -34 10 -13 13 -603 12 -2877 0 -1574 -4 -2887 -8 -2919 -4 -33 -13 -62 -22 -68 -8 -5 -1976 -9 -4891 -9 l-4878 0 -14 23 c-9 12 -22 63 -31 112 -14 80 -15 392 -12 2855 2 2511 4 2770 19 2823 9 33 21 64 27 70 6 6 48 19 94 28 77 17 367 17 4827 16 4521 -2 4748 -3 4805 -20z"
       id="path116" />
  </g>
  <text
     xml:space="preserve"
     id="text128"
     style="fill:black;fill-opacity:1;line-height:1.25;stroke:none;font-family:sans-serif;font-style:normal;font-weight:normal;font-size:30.00000083999999845px;white-space:pre;shape-inside:url(#rect130);" />
  <text
     xml:space="preserve"
     style="font-style:normal;font-weight:normal;font-size:30px;line-height:1.25;font-family:sans-serif;fill:#000000;fill-opacity:1;stroke:none;stroke-width:0.75"
     x="412.68967"
     y="342.06897"
     id="text136"><tspan
       sodipodi:role="line"
       id="tspan134"
       x="412.68967"
       y="342.06897"
       style="stroke-width:0.75"></tspan></text>
  <text
     xml:space="preserve"
     id="text142"
     style="font-style:normal;font-weight:normal;font-size:144px;line-height:1.25;font-family:sans-serif;white-space:pre;shape-inside:url(#rect144);fill:#000000;fill-opacity:1;stroke:none;"
     transform="translate(6.7409101,64.214682)"><tspan
       x="315.58594"
       y="391.78963"><tspan
         style="shape-inside:url(#rect144)">Sonstiges</tspan></tspan></text>
</svg>
