<?xml version="1.0" encoding="UTF-8" standalone="no"?>
<svg
   xmlns:dc="http://purl.org/dc/elements/1.1/"
   xmlns:cc="http://creativecommons.org/ns#"
   xmlns:rdf="http://www.w3.org/1999/02/22-rdf-syntax-ns#"
   xmlns:svg="http://www.w3.org/2000/svg"
   xmlns="http://www.w3.org/2000/svg"
   xmlns:sodipodi="http://sodipodi.sourceforge.net/DTD/sodipodi-0.dtd"
   xmlns:inkscape="http://www.inkscape.org/namespaces/inkscape"
   version="1.0"
   width="1280.000000pt"
   height="950.000000pt"
   viewBox="0 0 1280.000000 950.000000"
   preserveAspectRatio="xMidYMid meet"
   id="svg106"
   sodipodi:docname="Windows_PC.svg"
   inkscape:version="1.0.1 (c497b03c, 2020-09-10)">
  <metadata
     id="metadata112">
    <rdf:RDF>
      <cc:Work
         rdf:about="">
        <dc:format>image/svg+xml</dc:format>
        <dc:type
           rdf:resource="http://purl.org/dc/dcmitype/StillImage" />
        <dc:title />
      </cc:Work>
    </rdf:RDF>
  </metadata>
  <defs
     id="defs110" />
  <sodipodi:namedview
     pagecolor="#ffffff"
     bordercolor="#666666"
     borderopacity="1"
     objecttolerance="10"
     gridtolerance="10"
     guidetolerance="10"
     inkscape:pageopacity="0"
     inkscape:pageshadow="2"
     inkscape:window-width="1440"
     inkscape:window-height="799"
     id="namedview108"
     showgrid="false"
     inkscape:zoom="0.34326533"
     inkscape:cx="997.15711"
     inkscape:cy="654.93062"
     inkscape:window-x="131"
     inkscape:window-y="1073"
     inkscape:window-maximized="0"
     inkscape:current-layer="svg106"
     inkscape:document-rotation="0" />
  <g
     transform="translate(0.000000,950.000000) scale(0.100000,-0.100000)"
     fill="#000000"
     stroke="none"
     id="g104">
    <path
       d="M1345 8706 c-111 -35 -209 -123 -242 -218 -17 -51 -18 -171 -18 -3103 l0 -3050 22 -48 c48 -104 120 -168 234 -209 l64 -23 2175 -5 2175 -5 73 -22 c40 -11 76 -24 80 -28 7 -7 20 -870 13 -893 -4 -15 -17 -18 -171 -32 -284 -26 -517 -75 -629 -132 -92 -47 -95 -57 -41 -114 88 -91 251 -144 565 -184 428 -54 948 -54 1361 0 331 43 467 102 481 208 5 36 2 45 -24 71 -52 52 -245 100 -560 140 -84 11 -160 24 -170 30 -17 9 -18 32 -15 368 4 363 14 477 47 528 8 13 38 27 86 40 72 20 124 20 2294 25 2027 5 2224 6 2267 22 114 39 190 107 230 207 l23 56 0 3040 c0 2863 -1 3043 -17 3096 -35 113 -121 204 -220 234 -46 13 -597 15 -5047 14 -4006 0 -5004 -3 -5036 -13z m9880 -379 c33 -10 66 -25 72 -34 10 -13 13 -603 12 -2877 0 -1574 -4 -2887 -8 -2919 -4 -33 -13 -62 -22 -68 -8 -5 -1976 -9 -4891 -9 l-4878 0 -14 23 c-9 12 -22 63 -31 112 -14 80 -15 392 -12 2855 2 2511 4 2770 19 2823 9 33 21 64 27 70 6 6 48 19 94 28 77 17 367 17 4827 16 4521 -2 4748 -3 4805 -20z"
       id="path102" />
  </g>
  <path
     d="m 428.25666,273.64375 150.887,-19.36636 0.066,137.16292 -150.81256,0.80941 z m 150.81514,133.60187 0.11711,137.28472 -150.81311,-19.54116 -0.009,-118.66202 z m 18.29072,-155.50108 200.06233,-27.51785 v 165.47093 l -200.06233,1.49683 z m 200.10906,156.79139 -0.0469,164.72548 -200.0623,-26.61107 -0.28031,-138.42139 z"
     id="path13"
     style="stroke-width:4.10453" />
</svg>
